<svg xmlns="http://www.w3.org/2000/svg" viewBox="0 0 1200 630" role="img" aria-label="Built in Saudi — free, honest online tools">
  <defs>
    <linearGradient id="bg" x1="0" y1="0" x2="1" y2="1">
      <stop offset="0" stop-color="#0d4633"/>
      <stop offset="1" stop-color="#0b3d2e"/>
    </linearGradient>
    <pattern id="sadu" width="60" height="34" patternUnits="userSpaceOnUse" patternTransform="translate(0 0)">
      <path d="M30 2 L58 32 L2 32 Z" fill="none" stroke="#127a54" stroke-width="2" opacity="0.5"/>
    </pattern>
  </defs>
  <rect width="1200" height="630" fill="url(#bg)"/>
  <rect width="1200" height="630" fill="url(#sadu)" opacity="0.4"/>
  <rect x="0" y="0" width="1200" height="10" fill="#d6a33f"/>
  <path transform="translate(872 78) scale(4.8)" d="M32 31 Q35.4 16.96 32 4 Q28.6 16.96 32 31 Z M32 31 Q41.57 21.22 44.75 8.92 Q35.69 17.82 32 31 Z M32 31 Q28.31 17.82 19.25 8.92 Q22.43 21.22 32 31 Z M32 31 Q44.18 27.66 52.35 19.25 Q40.98 22.12 32 31 Z M32 31 Q23.02 22.12 11.65 19.25 Q19.82 27.66 32 31 Z M32 31 Q42.49 34.55 52.47 32.07 Q42.8 28.56 32 31 Z M32 31 Q21.2 28.56 11.53 32.07 Q21.51 34.55 32 31 Z M30.4 30 Q31.4 42 30.4 54 L33.6 54 Q34.6 42 33.6 30 Z" fill="#d6a33f" opacity="0.92"/>
  <text x="80" y="150" font-family="'JetBrains Mono', monospace" font-size="26" letter-spacing="6" fill="#d6a33f">BUILT IN SAUDI · بُنِيَ في السعودية</text>
  <text x="76" y="300" font-family="Georgia, 'Fraunces', serif" font-size="112" font-weight="700" fill="#faf6ee">Sharp little tools.</text>
  <text x="76" y="410" font-family="Georgia, 'Fraunces', serif" font-size="112" font-weight="700" fill="#d6a33f">No ads. No catch.</text>
  <text x="80" y="500" font-family="'Hanken Grotesk', sans-serif" font-size="34" fill="#cfe0d6">Free, privacy-first utilities that run entirely in your browser.</text>
  <text x="80" y="560" font-family="'Hanken Grotesk', sans-serif" font-size="28" fill="#8fb3a2">built-in-saudi.com</text>
</svg>
