<svg width="120" height="120" viewBox="0 0 120 120" xmlns="http://www.w3.org/2000/svg">
  <rect width="120" height="120" rx="26" fill="#1f5a41"/>
  <g transform="translate(22,27) scale(1.19)" fill="#f4ecd8">
    <path d="M32 31 Q35.4 16.96 32 4 Q28.6 16.96 32 31 Z M32 31 Q41.57 21.22 44.75 8.92 Q35.69 17.82 32 31 Z M32 31 Q28.31 17.82 19.25 8.92 Q22.43 21.22 32 31 Z M32 31 Q44.18 27.66 52.35 19.25 Q40.98 22.12 32 31 Z M32 31 Q23.02 22.12 11.65 19.25 Q19.82 27.66 32 31 Z M32 31 Q42.49 34.55 52.47 32.07 Q42.8 28.56 32 31 Z M32 31 Q21.2 28.56 11.53 32.07 Q21.51 34.55 32 31 Z M30.4 30 Q31.4 42 30.4 54 L33.6 54 Q34.6 42 33.6 30 Z"/>
  </g>
</svg>
